# xmcd
#
# Track frame offsets:
#	150
#	19127
#	35253
#	60308
#	81376
#	102659
#	114195
#	132921
#	148751
#	157627
#	180107
#	213668
#
# Disc length: 2954 seconds
#
# Revision: 0
# Processed by: cddbd v1.5.2PL0 Copyright (c) Steve Scherf et al.
# Submitted via: EasyCDDAExtractor 10.0.2.1
#
DISCID=960b880c
DTITLE=United Underworld - Unshackled
DYEAR=2007
DGENRE=Rock and Roll
TTITLE0=Smoke
TTITLE1=eQuality
TTITLE2=Silver Sky
TTITLE3=Astral Pilot
TTITLE4=Road 2 Burn
TTITLE5=Breed
TTITLE6=Sometimes
TTITLE7=Turning Around
TTITLE8=Coming Through
TTITLE9=dNatured
TTITLE10=Promise
TTITLE11=secret track-
EXTD=
EXTT0=
EXTT1=
EXTT2=
EXTT3=
EXTT4=
EXTT5=
EXTT6=
EXTT7=
EXTT8=
EXTT9=
EXTT10=
EXTT11=
PLAYORDER=
